<?xml version="1.0" encoding="UTF-8"?>
<svg width="512pt" height="512pt" version="1.0" viewBox="0 0 512 512" xmlns="http://www.w3.org/2000/svg" xmlns:cc="http://creativecommons.org/ns#" xmlns:dc="http://purl.org/dc/elements/1.1/" xmlns:rdf="http://www.w3.org/1999/02/22-rdf-syntax-ns#">
 <title>Qwikgame Logo</title>
 <desc>https://qwikgame.org/</desc>
 <metadata>Artist Elena Danailova for Qwikgame Inc 2024. Digitised by potrace 1.16, written by Peter Selinger 2001-2019. Optimised by John Brown 2026
  <rdf:RDF>
   <cc:Work rdf:about="">
    <dc:title>Qwikgame Icon</dc:title>
   </cc:Work>
  </rdf:RDF>
 </metadata>
 <g transform="matrix(.1 0 0 -.1 0 468.5)" stroke="#000" stroke-width="10">
  <path d="m1324 3824c-221-37-382-122-580-307-232-216-387-476-424-712-36-233-36-276 6-505 42-236 175-506 321-656 173-176 485-311 794-344 426-45 941 195 1223 570 40 52 77 111 83 130s26 69 43 110c44 104 77 238 96 387 19 144 10 269-28 392-21 69-68.26 164.2-102.3 213.2l-19.4 33.36c-31.22-54.32-58.36-110.4-85.7-166.8-40-88-45.33-104.8-27.33-179.8 9.9-112.9 2.607-237.1-12.32-309-9.955-44.32-27.91-92.61-37.91-125.6-54.74-156-38.55-104.1-65.69-176.7-9.427-20.79-55.18-118.8-80.61-146.9-20.31-31.4-115.8-140.8-196.8-200.8-173-129-383-215-585-239-222-27-510 52-711 195-79 55-128 111-183 209-126 220-186 475-160 682 26 216 108 383 278 568 185 203 319 286 515 320 136 24 241 18 467-29 279-58 397-120 516-275 37-47 58.02-99.61 68.02-83.26 2.971 4.855 34.2 66.9 39.2 74.9s23.28 42.09 54.47 91.09l26.01 38.17-107.7 115.1c-105 109-132 130-192 158-184 84-374 138-595 170-117 18-230 17-336-1z"/>
  <path d="m1161 3171c-61-61-48-368 20-455 72-91 136 61 110 263-14 104-30 153-63 188-26 28-42 29-67 4z"/>
  <path d="m1752 3164c-20-14-43-77-62-172-28-145 5-246 79-240 32 3 39 9 58 48 27 55 30 155 8 260-23 108-42 133-83 104z"/>
  <path d="m876 2602c-12-20 46-187 114-322 130-260 287-424 455-475 102-31 238-15 330 39 139 82 278 286 378 556 84 229 53 233-98 11-189-277-270-351-422-382-49-10-72-10-124 1-162 35-285 136-466 385-133 181-155 206-167 187z"/>
 </g>
 <g transform="matrix(.1 0 0 -.1 0 468.5)" fill="#f5a600" stroke="#f5a600" stroke-width="10">
  <path d="m3659 3839c221-27 285-41 431-90 300-102 515-312 625-609 15-41 31-84 36-95 8-19 17-60 40-180 27-141 27-377 0-520-36-196-133-396-270-555-157-184-369-337-541-393-25-7-61-19-80-25s-93-18-165-28c-105-13-145-14-205-6-41 6-102 14-135 17-33 4-73 10-90 15-16 5-57 16-90 25s-69 20-80 25-31 12-45 16c-49 13-227 102-296 147-38 25-101 75-141 110-69 62-71 62.43-54 80.43 10 10 47.57 52.21 79.57 96.21s60.02 90.15 65.02 93.15c5 4 36.4-21.79 70.4-54.79 54-53 182-141 256-175 262-123 539-160 773-103 111 27 259 117 381 231 169 158 282 358 318 564 22 130 10 417-22 520-5 17-21 66-36 110-94 286-297 460-641 551-81 21-327 34-453 24-190-15-327-78-462-214-110-108-143-159-275-416-18-36-27.74-54.32-34.32-73.53-7.426-21.67-13.66-36.68-17.58-54.42-10.64-48.15-17.11-97.95-17.11-215.9 1-129 15.19-182.5 9.191-202-10.17-35.15-14.79-46.65-23.55-70.08-7.352-29.63-47.02-140.3-48.29-140.3-6.797-15.89-10.78-27.38-21.95-53.72-24.98-58.9-61.21-135.3-73.21-131.3-5 1-16.49 32.53-24.19 62.36-7.596 29.4-17 70-22 89-20 80-40 316-40 476 0 172 9 260 34 324 63 161 154 329 205 380 15 14 46 50 70 79 148 178 302 283 508 345 69.52 22.35 44.48 11.6 113 26 20 13 283 13 389-1z"/>
  <path d="m3636 3231c42-145 61-233 61-284 0-87-9-121-37-134-19-9-27-6-49 14-51 48-66 101-71 260-6 143 2 202 30 237 13 16 50-36 66-93z"/>
  <path d="m3245 3074c8-17 18-55 21-84 11-103-33-355-62-355-28 0-69 220-64 343 3 66 8 90 23 106 28 31 62 27 82-10z"/>
  <path d="m4137 2734c-1-131-44-388-87-508-62-176-137-260-286-319-41-16-150-13-215 5-91 27-187 91-298 199-132 129-300 353-280 373 5 4 72-41 86-58 3-3 52-46 110-95 198-167 314-225 450-225 155 0 261 73 336 230 50 103 45 90 135 368 18 56 36 102 41 102 4 0 8-33 8-72z"/>
 </g>
 <g stroke-width=".75" aria-label="QWIKGAME">
  <path d="m50.24 410.5c-5.776 0-10.41-5.244-10.41-11.63v-15.05c0-6.384 4.636-11.63 10.41-11.63h7.6c5.776 0 10.41 5.244 10.41 11.63v15.05c0 6.384-4.636 11.63-10.41 11.63zm20.75 5.472c5.244-3.952 8.664-10.11 8.664-17.1v-15.05c0-11.86-9.804-21.43-21.81-21.43h-7.6c-12.01 0-21.81 9.576-21.81 21.43v15.05c0 11.86 9.804 21.43 21.81 21.43h7.6c1.064 0 2.128-0.076 3.192-0.228l3.192 4.028h14.21zm32.76-8.056-4.332-44.76h-12.16l5.168 46.97c0.76 6.536 5.7 9.804 10.49 9.804 3.724 0 7.372-1.976 8.892-6.004l10.56-30.86 10.56 30.86c1.52 4.028 5.168 6.004 8.892 6.004 4.788 0 9.728-3.268 10.49-9.804l5.168-46.97h-12.16l-4.332 44.76-12.62-36.56h-12.01zm63-44.76v56.39h11.4v-56.39zm22.8 0v56.39h11.55v-23.03h7.6l14.82 23.03h12.92l-18.7-28.2 17.94-28.2h-12.92l-14.44 23.56h-7.22v-23.56z" fill="#f5a600"/>
  <path d="m263 363.1c-11.93 0-21.66 9.576-21.66 21.43v13.53c0 11.86 9.804 21.43 21.81 21.43h15.35c5.928 0 10.72-4.484 10.72-9.956v-18.16h-11.4v18.32h-14.67c-5.776 0-10.41-5.244-10.41-11.63v-13.53c0-6.384 4.56-11.63 10.26-11.63h7.6c3.116 0 6.612 1.52 8.512 3.952l9.88-7.6c-3.952-3.8-12.46-6.156-18.39-6.156zm72.2 48.87 2.66 7.524h12.16l-16.57-47.2c-1.976-5.624-5.396-9.956-11.32-9.956s-9.348 4.332-11.32 9.956l-16.57 47.2h12.16l15.73-44.99 9.652 27.66h-15.2l-6.08 9.804zm72.88-37.24 4.332 44.76h12.16l-5.168-46.97c-0.76-6.536-5.7-9.804-10.49-9.804-3.724 0-7.372 1.976-8.892 6.004l-10.56 30.86-10.56-30.86c-1.52-4.028-5.168-6.004-8.892-6.004-4.788 0-9.728 3.268-10.49 9.804l-5.168 46.97h12.16l4.332-44.76 12.62 36.56h12.01zm35.95 21.74h26.83v-9.804h-26.83v-13.76h29.11l5.32-9.804h-35.11c-5.928 0-10.72 4.484-10.72 9.956v36.48c0 5.472 4.788 9.956 10.72 9.956h35.11l-5.32-9.804h-29.11z"/>
 </g>
</svg>
