<svg version="1" xmlns="http://www.w3.org/2000/svg" width="2666.667" height="2666.667" viewBox="0 0 2000.000000 2000.000000"><path d="M914.5 1.6c-8.6 1.3-30.7 4.8-37 6-1.6.3-4.6.9-6.5 1.4-1.9.5-5.1 1.1-7 1.4-1.9.3-10.7 2.4-19.5 4.6-8.8 2.2-16.7 4.2-17.6 4.4-22 5.5-62.8 20-94.4 33.7-9.5 4.1-50.2 24.2-55.5 27.3C671 84 658.8 91 658.5 91c-.8 0-41.3 25.7-42.5 27-.3.3-2.5 1.8-4.9 3.4-2.5 1.6-5 3.3-5.5 3.7-.6.5-5.6 4.2-11.1 8.1-5.5 4-10.7 7.8-11.5 8.5-.8.7-7.1 5.6-14 11.1-6.9 5.4-13.5 10.8-14.7 11.8-1.2 1-3.2 2.8-4.5 3.8-18.3 15-42 37.5-67.6 64.2-17.3 17.9-41.5 45.9-54.2 62.4-1.9 2.5-3.7 4.7-4 5-.8.7-17.2 22.6-22.6 30.2-20.8 29.4-34.3 50.5-56.9 88.8-9 15.3-28.6 53.2-39.5 76.4-5.2 11.1-16 35.5-16 36.1 0 .3-.9 2.4-2 4.8-1 2.3-2.9 6.7-4 9.7-1.2 3-2.8 6.8-3.5 8.5-4.6 10.3-26.5 72.8-31.4 89.6-.2.8-2.4 8.1-4.8 16.4-3.5 12-10.8 39.4-12.8 48.3-3.7 15.8-10.7 47.3-11 49.2-.1 1.4-1 6.1-1.9 10.5-.8 4.4-1.8 9.7-2.2 11.9-.3 2.1-.8 4.8-1 6-.3 1.1-1.6 9.3-3 18.1s-2.7 17.3-3 19c-.3 1.6-.7 5-1 7.5-.2 2.5-.6 5.6-.9 7-.6 2.8-3.1 25.2-4 35-.4 3.6-.9 7.6-1.3 9-.9 3.8-1.2 222.5-.2 230.5.4 3.8 1.1 10.6 1.5 14.9.4 4.3.8 8.6 1 9.5.1.9.6 5 1 9.1.3 4.1.8 8.2 1 9 .2.8.7 4 1 7 .4 3 .9 6.8 1.1 8.5.2 1.6.6 4.8.9 7 .3 2.2.7 4.7 1 5.5.2.8.7 3.9 1 6.9.6 5.2.8 6.3 2 12.1.2 1.4.7 4.5 1.1 7 .3 2.4.7 4.7.9 5 .2.4.6 2.6.9 5.1.3 2.4.8 5.5 1.1 6.9.2 1.4.9 4.7 1.5 7.5.5 2.7 1.1 6.1 1.4 7.5 1.5 8.8 8.6 40.1 13.7 60 8.2 32.7 12.5 47.6 22 77 3.3 10.2 6.4 19.4 6.9 20.5.5 1.1 1.6 4.1 2.4 6.7 4.8 14.6 20.1 53.4 30.8 77.8 11.9 27 37.9 79.2 43.8 88 .9 1.4 1.9 3.2 2.3 4.2.3.9 5.7 10.1 11.9 20.5 6.2 10.3 11.5 19.2 11.8 19.8.8 1.5 7.2 11.4 18.3 28 22.4 33.5 46.2 64.6 74.2 97 19.1 22.2 58.3 61.9 76.5 77.5 1.4 1.2 3.6 3.1 5 4.3 22.1 19.4 53.2 43.5 77 59.5 9.1 6.1 17 11.6 17.7 12.2.7.5 1.4 1 1.7 1 .2 0 5.7 3.3 12.3 7.4 23.7 14.7 68.7 38.1 91.8 47.6 4.4 1.8 9.4 3.8 11 4.5 1.7.8 6.2 2.5 10 4 3.9 1.5 7.9 3.1 9 3.6 3.3 1.4 30.5 10.5 38.5 12.9 4.1 1.2 8.6 2.6 10 3.1 3.6 1.3 41.8 10.9 45.9 11.5 1.8.3 4.3.8 5.5 1 9.9 2.2 19.8 4 36.1 6.7 12.3 2 17 2.1 91 2.3 63.9.3 79.8 0 88-1.1 5.5-.8 11.8-1.7 14-2 2.2-.3 7.6-1.2 12-2s9.4-1.7 11-1.9c2.6-.5 24-5 28.5-6.1 21.9-5.1 67-18.8 77.5-23.4 1.1-.5 7.9-3.2 15.2-6 55.4-21.4 115.4-55 167.8-94 11.2-8.4 32.5-25.2 36.1-28.6.7-.5 3.1-2.6 5.5-4.5s5.2-4.4 6.4-5.5c1.1-1.1 5.2-4.7 9-8 13-11.2 45.6-43.5 59.8-59 3-3.3 7.5-8.2 9.9-10.9l4.5-4.9 128.6 128.6c70.8 70.8 128.9 128.7 129.2 128.7.3 0 .5-179.8.5-399.5V1200h-92.7c-50.9 0-92.4-.2-92.2-.4.2-.2 3.4-.6 7.2-1 5.4-.5 23.1-3.6 28.2-5 16.7-4.4 36.5-12.8 51.8-22 53.8-32.1 89.2-87 96.5-149.6 1.4-12.4.7-39.3-1.4-54.5-1-7.3-6.2-26.9-9.8-36.7-3.4-9.3-13.5-30-18.7-38.1-4.5-7-16.2-22.2-21.8-28.1-20.5-21.6-40.2-35.7-67.1-47.9-6.7-3.1-26-9.8-26-9.1 0 .2-.9 0-1.9-.6-1.1-.5-3.7-1.3-5.8-1.6-2.1-.3-4.1-.8-4.4-1-.4-.2-2.8-.6-5.5-.9-2.6-.4-5-.8-5.4-1-4-2.5-47.9-2.6-61.5-.1-1.1.2-3.8.7-6 1.1-2.2.4-5.1.9-6.5 1.2-1.4.2-6.5 1.6-11.5 2.9-36.8 10.4-70.2 31.6-97 61.8-10.9 12.2-25.9 36.2-31.5 50.2-1.3 3.2-2.7 6.3-3.1 6.9-2 2.9-8.2 25.2-10.6 37.7-2.3 12.3-2.7 17-2.7 33.8-.1 17.1.5 26.4 1.9 33.5.3 1.1.7 3.7 1 5.9.3 2.1.7 4.1.9 4.5.2.3.7 2.3 1 4.4.3 2.1 1.1 4.7 1.6 5.8.6 1 .8 1.9.6 1.9-.9 0 6.1 19.3 10.6 29.1 18.6 40.8 51.7 75.3 91.8 95.4 3 1.5 6.7 3.3 8.1 4.1 6 3.1 28.1 10.5 35.9 12 1.4.3 3.2.7 4.1 1 .9.2 3.4.7 5.5 1 2.2.2 4.6.6 5.4.9.8.2 4.2.7 7.5 1.1 3.3.3 6.2.8 6.4 1 .2.2-130.8.4-291.2.4H1000l150 150 149.9 149.9-11.2 11.2c-16.9 16.9-28.5 27.2-48.7 43.2-6.2 4.9-32.8 23.7-33.5 23.7-.3 0-3.5 1.9-7.2 4.3-25.4 16.1-66.4 34.6-93.8 42.2-2.7.7-8.1 2.3-12 3.4-8.7 2.4-36.9 8-44.4 8.7-3.1.3-6.2.7-6.9 1-5.6 1.8-58.2 2.6-73.2 1.1-14.2-1.4-19.8-2.1-29-3.7-3-.5-7.1-1.2-9-1.5-1.9-.4-8.2-1.7-14-3.1-5.8-1.4-11.2-2.7-12-2.9-3.6-.9-22.1-6.6-28.5-8.9-18.9-6.7-52.2-22-63.6-29.2-2.1-1.3-4.1-2.4-4.3-2.4-2.1 0-35.5-22.6-49.6-33.6-25.1-19.3-56.1-49-74.8-71.4-1.1-1.4-4.8-5.8-8.1-9.8-5.5-6.5-21.3-27.3-25.1-32.9-.8-1.2-3.8-5.4-6.6-9.5-5.4-7.8-15.9-24.1-19.6-30.5-35.6-61.5-57.6-114.1-76.3-181.8-1.8-6.6-3.6-13.6-4.1-15.5-1-4.3-.7-3.4-3.8-16.3-1.5-5.9-2.9-12.5-3.2-14.5-.3-2-.9-5.3-1.4-7.2-.5-1.9-1.9-9.1-3-16-2.7-15.9-2.7-16.2-4-24.5-.5-3.9-1.2-7.9-1.4-9-.2-1.1-.7-5.2-1-9-.4-3.9-.9-7.7-1.1-8.5-.2-.8-.6-4.7-1-8.5-.3-3.9-.8-9-1.1-11.5-3.4-32.5-4-111.1-.9-142 .2-1.9.6-7.5 1-12.5.4-4.9.8-9.6 1-10.5.1-.8.6-4.7.9-8.5.4-3.9 1.1-9.9 1.6-13.5.5-3.6 1.2-8.3 1.5-10.5.5-3.9 2-13 3-19 .3-1.7.8-4.8 1.1-7 .4-2.2 2.2-11.4 4.1-20.5 1.8-9.1 3.6-17.6 3.9-19 6.9-33.9 28.3-100.1 41.5-128.6 1-2.3 1.9-4.4 1.9-4.7 0-1 5.9-13.7 15.3-32.7 15.3-31.1 32.3-59.9 51.2-86.5 8.3-11.7 23.8-32.2 25.4-33.5.3-.3 2.4-2.8 4.6-5.5 14.5-18.2 43.3-47 66.5-66.5 10.2-8.6 45-34 46.6-34 .3 0 2.4-1.2 4.7-2.8 6.3-4.1 7.3-4.6 18.7-10.8 21.6-11.7 30.1-15.7 50.1-23.4 18.7-7.3 38.4-13.1 57.6-17 9.8-2.1 12.2-2.5 17.8-3.4 1.7-.2 5-.8 7.5-1.2 17.9-2.8 62.2-4 81-2.1 18.4 1.9 18.9 1.9 29 3.7 3 .5 7 1.2 8.8 1.5 2.7.5 12.3 2.6 22.2 5 43.2 10.5 93.1 33.9 132.8 62.4 27.5 19.7 42.9 32.9 66.8 56.9l9.3 9.3 120.6-120.6c66.3-66.3 120.5-121 120.3-121.5-.5-1.3-12.4-14.4-23.8-26.4-34.3-35.7-65.8-63.9-101.3-90.7-18.5-14-52.6-37.3-65.2-44.5-1.1-.6-5.4-3.2-9.6-5.7-4.2-2.5-10.5-6.1-14-8-3.5-1.9-9.1-4.9-12.4-6.7-20.8-11.3-54.9-27-76-34.9-3.3-1.3-6.9-2.7-8-3.2-3.7-1.5-30.9-10.7-40-13.4-9.8-2.9-26.1-7.5-28.5-8-.8-.2-5.1-1.2-9.5-2.4-4.4-1.1-9.1-2.2-10.5-2.5-1.4-.3-5.9-1.2-10-2.1-4.1-.8-8.8-1.8-10.5-2.1-1.6-.3-4.1-.7-5.5-1-1.4-.3-11-1.8-21.5-3.4l-19-2.8h-76c-58.8 0-78 .3-85 1.4z"/></svg>